<?xml version="1.0" standalone="no"?><!DOCTYPE svg PUBLIC "-//W3C//DTD SVG 1.1//EN" "http://www.w3.org/Graphics/SVG/1.1/DTD/svg11.dtd">
<svg t="1727336072305" class="icon" viewBox="0 0 1025 1024" version="1.1"
  xmlns="http://www.w3.org/2000/svg" p-id="12248" width="200" height="200">
  <path d="M514.865796 1023.999488a511.999744 511.999744 0 1 1 0-1023.999488c5.11795 0 10.235901 0.307077 15.353851 0.614154l5.629745 0.358257a51.179503 51.179503 0 0 1 46.061553 33.471394 50.41181 50.41181 0 0 1-13.818466 54.864427 289.778344 289.778344 0 0 0-94.68208 213.316167 296.841115 296.841115 0 0 0 297.864705 293.053832h2.04718a296.175782 296.175782 0 0 0 170.427744-54.966786 51.793657 51.793657 0 0 1 56.809248-1.944821 50.104733 50.104733 0 0 1 23.542571 51.179503A514.814617 514.814617 0 0 1 514.865796 1023.999488zM421.207306 112.18547a409.845457 409.845457 0 0 0 30.707702 805.258294 414.144535 414.144535 0 0 0 440.143722-238.547662 400.479608 400.479608 0 0 1-117.712856 18.52698 404.881045 404.881045 0 0 1-284.046239-114.18147 395.668735 395.668735 0 0 1-119.248241-280.003059v-0.05118a386.763501 386.763501 0 0 1 50.155912-190.746006z" fill="#A1A1A1" p-id="12249"></path>
</svg>