<?xml version="1.0" standalone="no"?><!DOCTYPE svg PUBLIC "-//W3C//DTD SVG 1.1//EN" "http://www.w3.org/Graphics/SVG/1.1/DTD/svg11.dtd">
<svg t="1733294876140" class="icon" viewBox="0 0 1024 1024" version="1.1"
  xmlns="http://www.w3.org/2000/svg" p-id="16555" width="200" height="200">
  <path d="M847.644444 1024H150.755556c-48.355556-5.688889-88.177778-42.666667-93.866667-93.866667V93.866667C62.577778 45.511111 102.4 5.688889 150.755556 0h466.488888l327.111112 327.111111v605.866667c-8.533333 48.355556-48.355556 85.333333-96.711112 91.022222z m0-696.888889h-184.888888c-25.6-2.844444-45.511111-22.755556-45.511112-45.511111V93.866667H196.266667c-25.6-2.844444-45.511111 17.066667-45.511111 42.666666v748.088889c5.688889 22.755556 22.755556 42.666667 45.511111 45.511111h605.866666c25.6-2.844444 45.511111-22.755556 45.511111-45.511111V327.111111z m-270.222222 512l-102.4-150.755555-45.511111 68.266666h45.511111v82.488889H241.777778l167.822222-244.622222-150.755556-219.022222h125.155556l88.177778 128 88.177778-128h125.155555L540.444444 591.644444l167.822223 244.622223-130.844445 2.844444z" fill="#A1A1A1" p-id="16556"></path>
</svg>