<?xml version="1.0" standalone="no"?><!DOCTYPE svg PUBLIC "-//W3C//DTD SVG 1.1//EN" "http://www.w3.org/Graphics/SVG/1.1/DTD/svg11.dtd">
<svg t="1727337344522" class="icon" viewBox="0 0 1024 1024" version="1.1"
  xmlns="http://www.w3.org/2000/svg" p-id="17351" width="200" height="200">
  <path d="M512 0c25.6 0 42.666667 17.066667 42.666667 42.666667v85.333333c0 25.6-17.066667 42.666667-42.666667 42.666667s-42.666667-17.066667-42.666667-42.666667V42.666667c0-25.6 17.066667-42.666667 42.666667-42.666667zM512 853.333333c25.6 0 42.666667 17.066667 42.666667 42.666667v85.333333c0 25.6-17.066667 42.666667-42.666667 42.666667s-42.666667-17.066667-42.666667-42.666667v-85.333333c0-25.6 17.066667-42.666667 42.666667-42.666667zM209.066667 149.333333c-17.066667-17.066667-42.666667-17.066667-59.733334 0-17.066667 17.066667-17.066667 42.666667 0 59.733334l59.733334 59.733333c17.066667 17.066667 42.666667 17.066667 59.733333 0 17.066667-17.066667 17.066667-42.666667 0-59.733333L209.066667 149.333333zM755.2 755.2c17.066667-17.066667 42.666667-17.066667 59.733333 0l59.733334 59.733333c17.066667 17.066667 17.066667 42.666667 0 59.733334s-42.666667 17.066667-59.733334 0l-59.733333-59.733334c-17.066667-17.066667-17.066667-46.933333 0-59.733333zM42.666667 469.333333c-25.6 0-42.666667 17.066667-42.666667 42.666667s17.066667 42.666667 42.666667 42.666667h85.333333c25.6 0 42.666667-17.066667 42.666667-42.666667s-17.066667-42.666667-42.666667-42.666667H42.666667zM853.333333 512c0-25.6 17.066667-42.666667 42.666667-42.666667h85.333333c25.6 0 42.666667 17.066667 42.666667 42.666667s-17.066667 42.666667-42.666667 42.666667h-85.333333c-25.6 0-42.666667-17.066667-42.666667-42.666667zM149.333333 814.933333c-17.066667 17.066667-17.066667 42.666667 0 59.733334 17.066667 17.066667 42.666667 17.066667 59.733334 0l59.733333-59.733334c17.066667-17.066667 17.066667-42.666667 0-59.733333-17.066667-17.066667-42.666667-17.066667-59.733333 0l-59.733334 59.733333zM755.2 268.8c-17.066667-17.066667-17.066667-42.666667 0-59.733333l59.733333-59.733334c17.066667-17.066667 42.666667-17.066667 59.733334 0s17.066667 42.666667 0 59.733334l-59.733334 59.733333c-17.066667 17.066667-46.933333 17.066667-59.733333 0z" fill="#A1A1A1" p-id="17352"></path>
  <path d="M512 213.333333c-166.4 0-298.666667 132.266667-298.666667 298.666667s132.266667 298.666667 298.666667 298.666667 298.666667-132.266667 298.666667-298.666667-132.266667-298.666667-298.666667-298.666667z m0 512c-119.466667 0-213.333333-93.866667-213.333333-213.333333s93.866667-213.333333 213.333333-213.333333 213.333333 93.866667 213.333333 213.333333-93.866667 213.333333-213.333333 213.333333z" fill="#A1A1A1" p-id="17353"></path>
</svg>