<?xml version="1.0" standalone="no"?><!DOCTYPE svg PUBLIC "-//W3C//DTD SVG 1.1//EN" "http://www.w3.org/Graphics/SVG/1.1/DTD/svg11.dtd"><svg t="1766741604987" class="icon" viewBox="0 0 1024 1024" version="1.1" xmlns="http://www.w3.org/2000/svg" p-id="5603" xmlns:xlink="http://www.w3.org/1999/xlink" width="200" height="200"><path d="M972.8 859.050667a51.2 51.2 0 1 1 0 102.4H51.2a51.2 51.2 0 0 1 0-102.4h921.6zM212.48 256c5.802667-0.341333 12.032 3.413333 18.773333 11.52l14.592 19.029333 21.333334 29.44 40.704 57.088 24.064 32.256c7.68 9.813333 10.666667 18.090667 8.874666 24.576-1.28 4.949333-4.864 7.936-10.752 8.96l-53.589333 1.450667c-6.997333 0.341333-11.349333 2.56-12.885333 6.826667a43.690667 43.690667 0 0 0-1.962667 8.533333v112.64a43.690667 43.690667 0 0 0 1.962667 8.533333c1.536 4.266667 5.888 6.485333 12.885333 6.826667l46.933333 1.109333c9.898667-0.341333 15.701333 2.730667 17.408 9.301334 1.792 6.485333-1.194667 14.762667-8.874666 24.576l-24.064 32.256-53.76 75.264c-8.533333 11.861333-16.213333 21.930667-22.869334 30.293333-6.741333 8.021333-12.970667 11.946667-18.773333 11.52-5.802667-0.341333-11.861333-4.778667-18.176-13.141333l-23.893333-32.512-78.336-109.141334c-6.4-8.362667-8.192-15.189333-5.546667-20.48 2.56-5.290667 8.704-7.936 18.176-7.936l39.509333-1.109333c7.338667 0.341333 12.117333-2.56 14.165334-9.045333l2.304-10.24 0.853333-15.701334v-78.677333a75.946667 75.946667 0 0 0-3.157333-20.650667 11.946667 11.946667 0 0 0-9.130667-8.704l-24.234667-0.853333a427.52 427.52 0 0 0-20.309333-0.597333c-9.472 0-15.530667-2.645333-18.176-7.936s-0.853333-12.117333 5.546667-20.48l23.125333-31.744 55.125333-77.397334c8.96-12.544 16.981333-23.381333 23.978667-32.426666 6.314667-8.533333 12.373333-12.8 18.176-13.226667z m674.986667 398.250667a51.2 51.2 0 0 1 0 102.4H477.866667a51.2 51.2 0 1 1 0-102.4h409.6z m0-199.168a51.2 51.2 0 0 1 0 102.4H477.866667a51.2 51.2 0 1 1 0-102.4h409.6zM887.466667 256a51.2 51.2 0 0 1 0 102.4H477.866667a51.2 51.2 0 1 1 0-102.4h409.6z m85.333333-213.333333a51.2 51.2 0 0 1 0 102.4H51.2A51.2 51.2 0 1 1 51.2 42.666667h921.6z" fill="#A1A1A1" p-id="5604"></path></svg>