<?xml version="1.0" standalone="no"?><!DOCTYPE svg PUBLIC "-//W3C//DTD SVG 1.1//EN" "http://www.w3.org/Graphics/SVG/1.1/DTD/svg11.dtd"><svg t="1744788348825" class="icon" viewBox="0 0 1024 1024" version="1.1" xmlns="http://www.w3.org/2000/svg" p-id="8501" xmlns:xlink="http://www.w3.org/1999/xlink" width="200" height="200"><path d="M926.165333 97.820444a42.638222 42.638222 0 0 1 0 60.330667l-239.928889 239.928889a42.638222 42.638222 0 0 1-60.330666 0 42.638222 42.638222 0 0 1 0-60.330667l239.928889-239.928889a42.638222 42.638222 0 0 1 60.330666 0" fill="#A1A1A1" p-id="8502"></path><path d="M613.404444 367.914667a42.666667 42.666667 0 0 1 42.666667-42.666667h199.111111a42.666667 42.666667 0 1 1 0 85.333333h-199.111111a42.666667 42.666667 0 0 1-42.666667-42.666666" fill="#A1A1A1" p-id="8503"></path><path d="M656.071111 126.136889a42.666667 42.666667 0 0 1 42.666667 42.666667v199.111111a42.666667 42.666667 0 1 1-85.333334 0v-199.111111a42.666667 42.666667 0 0 1 42.666667-42.666667M926.165333 926.151111a42.638222 42.638222 0 0 1-60.330666 0L625.92 686.222222a42.638222 42.638222 0 0 1 0-60.330666 42.638222 42.638222 0 0 1 60.330667 0l239.928889 239.928888a42.638222 42.638222 0 0 1 0 60.330667" fill="#A1A1A1" p-id="8504"></path><path d="M656.071111 613.390222a42.666667 42.666667 0 0 1 42.666667 42.666667v199.111111a42.666667 42.666667 0 1 1-85.333334 0v-199.111111a42.666667 42.666667 0 0 1 42.666667-42.666667" fill="#A1A1A1" p-id="8505"></path><path d="M897.848889 656.056889a42.666667 42.666667 0 0 1-42.666667 42.666667h-199.111111a42.666667 42.666667 0 1 1 0-85.333334h199.111111a42.666667 42.666667 0 0 1 42.666667 42.666667M97.834667 97.820444a42.638222 42.638222 0 0 1 60.330666 0l239.928889 239.928889a42.638222 42.638222 0 0 1 0 60.330667 42.638222 42.638222 0 0 1-60.330666 0L97.834667 158.151111a42.638222 42.638222 0 0 1 0-60.330667" fill="#A1A1A1" p-id="8506"></path><path d="M367.928889 410.581333a42.666667 42.666667 0 0 1-42.666667-42.666666v-199.111111a42.666667 42.666667 0 1 1 85.333334 0v199.111111a42.666667 42.666667 0 0 1-42.666667 42.666666" fill="#A1A1A1" p-id="8507"></path><path d="M126.151111 367.914667a42.666667 42.666667 0 0 1 42.666667-42.666667h199.111111a42.666667 42.666667 0 1 1 0 85.333333h-199.111111a42.666667 42.666667 0 0 1-42.666667-42.666666M97.834667 926.151111a42.638222 42.638222 0 0 1 0-60.330667l239.928889-239.928888a42.638222 42.638222 0 0 1 60.330666 0 42.638222 42.638222 0 0 1 0 60.330666L158.151111 926.151111a42.638222 42.638222 0 0 1-60.330667 0" fill="#A1A1A1" p-id="8508"></path><path d="M410.595556 656.056889a42.666667 42.666667 0 0 1-42.666667 42.666667h-199.111111a42.666667 42.666667 0 1 1 0-85.333334h199.111111a42.666667 42.666667 0 0 1 42.666667 42.666667" fill="#A1A1A1" p-id="8509"></path><path d="M367.928889 897.834667a42.666667 42.666667 0 0 1-42.666667-42.666667v-199.111111a42.666667 42.666667 0 0 1 85.333334 0v199.111111a42.666667 42.666667 0 0 1-42.666667 42.666667" fill="#A1A1A1" p-id="8510"></path></svg>